<svg width="40" height="40" viewBox="0 0 40 40" fill="none" xmlns="http://www.w3.org/2000/svg">
<path d="M26.3274 19.332H16.0424L22.1983 13.9883C22.2967 13.9021 22.2369 13.7422 22.1069 13.7422H20.5512C20.4826 13.7422 20.4176 13.7668 20.3666 13.8107L13.7239 19.5746C13.663 19.6273 13.6142 19.6925 13.5808 19.7658C13.5473 19.839 13.53 19.9186 13.53 19.9991C13.53 20.0796 13.5473 20.1592 13.5808 20.2325C13.6142 20.3057 13.663 20.3709 13.7239 20.4236L20.4053 26.2227C20.4317 26.2455 20.4633 26.2578 20.4967 26.2578H22.1051C22.2352 26.2578 22.2949 26.0961 22.1965 26.0117L16.0424 20.668H26.3274C26.4047 20.668 26.468 20.6047 26.468 20.5273V19.4727C26.468 19.3953 26.4047 19.332 26.3274 19.332Z" fill="black" fill-opacity="0.88"/>
</svg>
